PathFileType  4	(X/Y/Z) C:\Users\15086\Documents\GitHub\mocap-processing\BertecTesting2023-09-14\
DataRate	CameraRate	NumFrames	NumMarkers	Units	OrigDataRate	OrigDataStartFrame	OrigNumFrames
  200.0		  200.0		   37		     10		 mm	  200.0	      1188	   1900
Frame#	Time	r_calc			r_toe			r_meta			r_ankle			r_mankle			l_calc			l_toe			l_meta			l_ankle			l_mankle			
		X1	Y1	Z1	X2	Y2	Z2	X3	Y3	Z3	X4	Y4	Z4	X5	Y5	Z5	X6	Y6	Z6	X7	Y7	Z7	X8	Y8	Z8	X9	Y9	Z9	X10	Y10	Z10	

1188	5.93500	759.999	738.870	-241.544	632.697	570.152	-187.026	652.453	620.640	-143.809	766.871	668.508	-175.971	760.468	635.332	-255.539	886.524	55.699	-291.295	1100.747	55.062	-332.123	1041.229	46.645	-377.124	950.536	104.905	-350.300	981.864	114.645	-270.219
1189	5.94000	766.815	730.018	-242.155	650.460	554.325	-187.492	665.702	605.831	-145.588	777.442	659.810	-176.972	773.019	626.023	-256.410	856.981	57.074	-292.970	1071.168	54.701	-333.068	1011.687	46.578	-378.026	922.380	106.305	-351.795	953.703	115.925	-271.653
1190	5.94500	772.032	720.367	-244.188	667.643	536.666	-187.719	678.490	588.929	-146.383	786.753	649.717	-177.279	784.746	615.971	-257.108	827.154	58.719	-295.779	1041.024	53.960	-333.758	982.001	46.365	-379.332	894.735	107.221	-354.774	924.399	116.976	-273.723
1191	5.95000	775.908	708.525	-243.796	684.530	517.368	-187.694	691.184	570.084	-147.621	795.091	638.509	-176.955	795.633	605.411	-257.715	797.258	61.285	-298.219	1010.891	53.742	-335.150	952.325	46.373	-380.641	867.004	107.612	-357.312	894.899	118.028	-275.352
1192	5.95500	778.448	694.469	-243.006	702.438	496.978	-187.739	704.247	549.498	-150.753	802.173	626.382	-175.056	806.716	594.136	-258.401	767.674	64.662	-299.482	980.539	53.325	-335.818	922.735	46.179	-381.217	837.803	109.071	-359.343	865.783	119.327	-276.443
1193	5.96000	780.800	678.569	-242.638	721.350	475.598	-188.943	718.327	527.630	-149.434	809.696	612.465	-175.708	816.540	581.237	-259.130	737.974	68.493	-300.818	950.341	53.071	-334.617	892.126	46.272	-381.672	809.740	111.921	-360.418	837.193	121.429	-277.083
1194	5.96500	783.081	661.074	-242.058	741.774	453.250	-191.504	733.924	504.773	-150.151	817.573	596.818	-176.111	827.625	567.392	-258.281	708.712	73.441	-300.912	919.916	52.934	-334.458	861.984	46.560	-381.470	781.239	114.439	-360.909	808.914	123.870	-277.357
1195	5.97000	786.034	641.877	-241.061	763.915	430.383	-194.135	750.990	480.875	-150.347	826.381	580.190	-176.746	838.915	552.656	-257.950	679.647	79.455	-300.905	889.840	52.984	-334.409	831.680	46.931	-381.467	753.098	118.280	-361.242	780.951	127.057	-277.572
1196	5.97500	789.736	621.369	-240.225	787.661	407.665	-195.252	769.728	456.537	-150.928	836.010	562.630	-177.869	850.203	537.317	-258.087	651.248	86.006	-301.252	859.471	52.672	-334.058	802.082	47.850	-381.315	724.365	122.542	-361.749	753.645	130.782	-277.843
1197	5.98000	795.108	599.109	-238.893	812.246	386.216	-193.375	790.121	432.615	-148.614	846.750	543.613	-176.744	861.092	519.788	-258.678	623.168	93.890	-301.849	829.035	52.550	-333.738	772.234	48.384	-381.297	697.151	127.477	-362.108	726.930	134.715	-278.169
1198	5.98500	801.826	575.492	-237.736	837.911	365.353	-191.797	812.392	408.470	-150.591	858.819	524.321	-176.606	876.391	503.919	-258.192	596.136	102.905	-302.527	798.717	52.637	-333.542	742.772	49.063	-381.613	670.546	133.123	-363.105	700.459	139.210	-279.569
1199	5.99000	810.319	550.817	-236.748	866.935	341.833	-200.295	836.965	384.823	-151.366	872.306	504.439	-176.423	890.985	486.139	-258.371	570.338	112.396	-303.834	768.508	52.619	-333.701	713.869	50.074	-382.420	644.645	139.324	-364.599	675.184	144.176	-281.342
1200	5.99500	821.051	525.533	-235.476	895.139	324.455	-197.754	863.020	361.842	-152.200	887.143	484.238	-176.513	906.698	468.032	-258.475	545.858	123.102	-305.366	738.584	52.940	-334.046	685.583	50.937	-383.377	619.986	146.596	-366.213	650.991	149.399	-283.795
1201	6.00000	833.667	499.976	-235.421	925.531	305.937	-198.847	890.640	339.777	-152.995	903.539	463.963	-176.321	923.318	449.603	-258.708	523.464	134.680	-307.384	708.802	53.485	-334.413	657.811	51.653	-384.424	596.726	154.464	-368.153	628.188	154.643	-287.157
1202	6.00500	848.683	473.959	-235.990	956.847	288.578	-199.721	919.606	319.044	-154.203	921.158	443.916	-177.323	941.790	431.125	-259.136	503.310	147.363	-309.628	679.533	54.091	-334.799	630.578	52.657	-385.615	575.284	162.519	-370.666	607.479	160.224	-291.015
1203	6.01000	865.443	447.878	-236.437	989.488	272.476	-200.818	949.260	299.304	-154.680	940.429	424.239	-177.577	962.133	412.493	-259.716	485.957	160.810	-312.641	651.217	54.723	-335.354	604.339	54.123	-387.047	557.212	171.146	-374.084	589.519	166.161	-295.630
1204	6.01500	884.741	421.966	-235.801	1022.514	257.662	-200.827	980.152	280.980	-155.280	961.068	404.719	-178.775	982.610	394.796	-260.437	471.100	176.041	-316.395	624.255	55.625	-336.477	578.650	56.826	-388.906	542.205	180.232	-378.303	574.797	172.453	-300.664
1205	6.02000	904.867	396.487	-237.041	1055.325	243.495	-201.278	1011.501	264.013	-155.709	982.751	385.533	-179.802	1005.531	376.700	-262.387	458.425	192.794	-321.502	599.787	57.533	-338.394	554.394	62.034	-390.907	528.020	189.698	-382.752	560.768	179.614	-305.731
1206	6.02500	927.263	371.455	-239.305	1088.812	230.772	-201.163	1043.261	248.075	-156.171	1005.193	367.382	-181.035	1029.556	359.159	-263.645	447.089	210.951	-327.557	577.570	60.671	-340.547	531.807	70.409	-392.883	514.953	200.732	-387.546	546.768	188.792	-310.790
1207	6.03000	950.784	347.109	-242.085	1122.775	219.282	-200.944	1075.562	233.502	-156.757	1028.818	349.323	-182.875	1054.317	342.356	-265.446	435.617	229.477	-334.540	556.362	66.030	-343.370	510.027	81.338	-395.173	502.384	213.047	-392.286	532.466	200.164	-315.007
1208	6.03500	975.914	322.524	-245.232	1156.896	209.481	-200.815	1108.252	220.281	-157.514	1053.198	331.753	-185.326	1079.730	326.252	-267.171	423.457	249.750	-340.467	533.674	73.530	-346.490	489.005	95.447	-398.140	489.262	227.298	-396.211	517.074	213.570	-318.334
1209	6.04000	1002.028	299.189	-249.398	1191.143	201.447	-200.256	1140.783	208.337	-158.137	1077.800	315.059	-187.450	1105.617	311.363	-269.439	410.207	269.769	-346.521	510.848	81.769	-349.782	469.037	111.402	-401.229	475.121	242.692	-398.395	500.638	227.484	-321.968
1210	6.04500	1028.829	276.396	-252.965	1224.627	194.587	-200.555	1173.123	197.629	-159.435	1102.423	299.142	-190.022	1131.890	297.418	-271.403	397.029	290.476	-350.569	487.195	93.113	-351.695	450.200	128.843	-403.621	460.790	259.365	-400.753	484.750	243.672	-323.544
1211	6.05000	1056.723	254.596	-258.751	1257.302	188.894	-200.926	1204.927	187.697	-160.708	1127.076	283.899	-192.833	1158.125	284.538	-273.747	384.574	311.217	-352.916	464.112	112.684	-351.482	430.817	147.841	-405.514	448.566	276.415	-401.554	468.046	260.772	-322.296
1212	6.05500	1084.685	233.979	-263.564	1288.943	184.419	-201.522	1236.073	178.751	-162.742	1151.606	269.133	-195.747	1183.280	272.510	-276.413	371.107	332.949	-355.493	442.492	132.135	-351.327	412.602	167.863	-406.924	435.533	295.231	-403.178	451.658	278.733	-323.114
1213	6.06000	1113.856	213.895	-265.495	1319.040	180.478	-202.758	1266.233	170.199	-165.121	1176.050	254.586	-197.781	1208.495	261.213	-278.707	359.014	355.755	-357.688	421.777	150.471	-351.744	395.861	188.740	-407.956	423.603	315.634	-405.182	436.628	298.877	-323.329
1214	6.06500	1141.409	196.848	-269.288	1347.882	176.846	-205.091	1295.776	162.166	-168.101	1200.040	240.842	-200.746	1232.418	250.525	-281.209	349.587	379.784	-360.552	402.454	171.418	-351.833	378.248	210.373	-408.537	410.751	335.357	-408.080	424.211	318.813	-324.414
1215	6.07000	1168.102	181.575	-273.046	1375.131	173.610	-208.225	1324.017	154.586	-171.713	1223.184	227.308	-202.187	1255.427	240.421	-283.724	342.746	404.207	-362.250	384.353	193.939	-351.697	361.770	233.014	-408.900	401.146	357.234	-408.639	413.240	340.804	-325.357
1216	6.07500	1193.340	168.355	-275.915	1400.699	171.488	-212.256	1350.962	147.956	-176.025	1245.889	215.110	-204.565	1276.803	230.983	-285.691	338.081	429.225	-364.389	367.365	216.922	-351.491	346.392	256.790	-409.019	393.114	377.828	-409.627	404.954	361.142	-329.316
1217	6.08000	1216.239	157.100	-278.573	1423.836	170.727	-216.769	1376.103	142.776	-181.190	1265.835	203.691	-205.811	1295.708	222.814	-287.400	335.250	454.954	-366.348	351.860	240.914	-351.339	332.606	281.341	-409.137	387.243	399.320	-411.296	398.291	382.829	-329.923
1218	6.08500	1236.607	147.284	-281.015	1444.220	171.518	-222.523	1398.890	138.781	-186.771	1285.146	194.575	-208.372	1312.098	216.429	-289.044	335.550	480.748	-368.166	338.735	266.187	-351.489	321.560	307.324	-409.524	383.192	422.298	-414.141	393.913	404.662	-331.276
1219	6.09000	1253.930	139.144	-282.366	1460.997	172.950	-228.488	1418.897	136.118	-192.886	1301.759	186.662	-210.265	1325.488	211.879	-290.521	338.978	506.552	-369.775	327.928	292.304	-351.562	313.437	333.613	-410.910	382.717	443.681	-414.531	391.746	426.608	-332.851
1220	6.09500	1268.115	132.570	-283.346	1475.241	175.259	-235.490	1432.334	133.403	-199.274	1315.143	179.607	-211.579	1336.076	208.264	-291.645	344.960	531.430	-371.215	319.836	318.718	-352.747	307.878	361.210	-411.829	384.325	466.194	-415.131	392.128	448.590	-333.414
1221	6.10000	1278.983	127.364	-284.286	1485.019	175.565	-241.780	1449.562	132.269	-206.334	1325.234	174.132	-212.241	1344.064	205.727	-292.672	353.215	556.276	-371.867	314.204	345.093	-354.272	305.064	388.647	-413.425	387.839	488.220	-416.011	394.553	469.866	-334.053
1222	6.10500	1286.405	122.793	-284.305	1492.146	176.093	-248.503	1458.708	130.204	-212.198	1333.155	171.035	-214.427	1349.134	203.387	-293.788	363.698	579.465	-372.044	311.357	371.131	-355.950	305.117	415.597	-415.150	393.532	510.179	-416.377	398.832	490.316	-334.845
1223	6.11000	1290.472	119.185	-285.029	1495.906	175.279	-252.984	1464.059	127.871	-217.013	1337.083	167.635	-215.469	1351.654	200.762	-294.749	375.719	601.265	-371.330	311.059	395.869	-359.437	307.684	441.381	-417.058	401.402	530.597	-416.617	405.201	509.786	-335.169
1224	6.11500	1291.011	115.791	-286.092	1496.151	173.440	-256.577	1466.306	125.362	-221.667	1337.830	163.762	-216.610	1351.400	197.640	-295.484	388.845	621.789	-369.928	313.586	419.880	-360.430	312.572	466.715	-418.853	410.522	550.422	-416.513	413.161	528.208	-335.545
